# xmcd CD database file
#
# Track frame offsets:
#	150
#	20505
#	46120
#	67170
#	87440
#	108927
#	131492
#	151192
#
# Disc length: 2281 seconds
#
# Revision: 0
# Processed by: cddbd v1.4PL0 Copyright (c) Steve Scherf et al.
# Submitted via: CDex 1.50beta9
#
DISCID=6008e708
DTITLE=Conjunto Clasico - Clasico De Nuevo
DYEAR=1996
DGENRE=Salsa
TTITLE0=Tu Mi Estrella
TTITLE1=Hipocresia
TTITLE2=Gracias Amor
TTITLE3=Se Que Volvera
TTITLE4=Un Dia De April
TTITLE5=No Te Quiero Como Amiga
TTITLE6=Contigo Me Voy
TTITLE7=Me Enamore
EXTD=YEAR: 1996
EXTT0=
EXTT1=
EXTT2=
EXTT3=
EXTT4=
EXTT5=
EXTT6=
EXTT7=
PLAYORDER=
